<svg width="18" height="19" viewBox="0 0 18 19" fill="currentColor" xmlns="http://www.w3.org/2000/svg">
<path d="M12.228 18.0005V10.5005C12.228 7.53352 10.228 5.67052 6.79997 5.67052C3.97097 5.67052 1.92397 7.11952 1.41797 9.53452H4.93697C5.11645 9.23866 5.3761 8.99972 5.68583 8.84538C5.99556 8.69105 6.34268 8.62765 6.68697 8.66252C6.90319 8.63961 7.12181 8.66341 7.32803 8.73232C7.53426 8.80123 7.72327 8.91364 7.88228 9.06193C8.04129 9.21023 8.16659 9.39096 8.24969 9.59188C8.3328 9.7928 8.37177 10.0092 8.36397 10.2265V11.6265C7.43996 10.9908 6.33336 10.6747 5.21297 10.7265C2.40697 10.7325 0.542969 12.0005 0.542969 14.4815C0.542969 16.6895 2.19897 18.2815 4.95897 18.2815C5.61046 18.3259 6.26405 18.2339 6.87792 18.0112C7.49179 17.7886 8.05243 17.4403 8.52397 16.9885V18.0005H12.228ZM6.24697 15.8155C5.02797 15.8155 4.15397 15.3325 4.15397 14.4155C4.15397 13.4725 4.98197 13.0155 6.29297 13.0155C7.49297 13.0155 8.36297 13.6155 8.36297 14.4155C8.36297 15.2155 7.42097 15.8155 6.24697 15.8155ZM17.702 18.0005V5.94852H13.838V18.0005H17.702ZM13.631 2.86652C13.6221 3.14362 13.6724 3.41942 13.7787 3.67547C13.885 3.93153 14.0447 4.16194 14.2472 4.35128C14.4497 4.54063 14.6903 4.68454 14.9529 4.7734C15.2155 4.86226 15.4941 4.89401 15.77 4.86652C16.0458 4.89401 16.3244 4.86226 16.587 4.7734C16.8496 4.68454 17.0902 4.54063 17.2927 4.35128C17.4952 4.16194 17.655 3.93153 17.7612 3.67547C17.8675 3.41942 17.9179 3.14362 17.909 2.86652C17.9179 2.58943 17.8675 2.31363 17.7612 2.05758C17.655 1.80152 17.4952 1.57111 17.2927 1.38177C17.0902 1.19242 16.8496 1.0485 16.587 0.959648C16.3244 0.870791 16.0458 0.839041 15.77 0.866524C15.4941 0.839041 15.2155 0.870791 14.9529 0.959648C14.6903 1.0485 14.4497 1.19242 14.2472 1.38177C14.0447 1.57111 13.885 1.80152 13.7787 2.05758C13.6724 2.31363 13.6221 2.58943 13.631 2.86652Z"/>
</svg>
